<svg width="16" height="16" viewBox="0 0 16 16" fill="none" xmlns="http://www.w3.org/2000/svg">
<rect x="0.5" y="0.5" width="15" height="15" rx="7.5" fill="#444950"/>
<g clip-path="url(#clip0_235_1273)">
<path d="M11.9997 8.66634H8.66634V11.9997C8.66634 12.3663 8.36634 12.6663 7.99967 12.6663C7.63301 12.6663 7.33301 12.3663 7.33301 11.9997V8.66634H3.99967C3.63301 8.66634 3.33301 8.36634 3.33301 7.99967C3.33301 7.63301 3.63301 7.33301 3.99967 7.33301H7.33301V3.99967C7.33301 3.63301 7.63301 3.33301 7.99967 3.33301C8.36634 3.33301 8.66634 3.63301 8.66634 3.99967V7.33301H11.9997C12.3663 7.33301 12.6663 7.63301 12.6663 7.99967C12.6663 8.36634 12.3663 8.66634 11.9997 8.66634Z" fill="#DADDE1"/>
</g>
<rect x="0.5" y="0.5" width="15" height="15" rx="7.5" stroke="#1C1E21"/>
<defs>
<clipPath id="clip0_235_1273">
<rect width="16" height="16" fill="white"/>
</clipPath>
</defs>
</svg>
