<svg xmlns="http://www.w3.org/2000/svg" width="24" height="24" viewBox="0 0 24 24" fill="none">
<path d="M16.7044 3.68626C16.7988 3.59084 16.8726 3.4786 16.9216 3.35595C16.9706 3.23329 16.9939 3.10262 16.99 2.97139C16.9861 2.84017 16.9552 2.71096 16.899 2.59115C16.8428 2.47133 16.7625 2.36325 16.6625 2.27309C16.5626 2.18292 16.4451 2.11243 16.3166 2.06565C16.1882 2.01886 16.0513 1.99669 15.9139 2.0004C15.7765 2.00411 15.6411 2.03363 15.5157 2.08728C15.3902 2.14093 15.277 2.21765 15.1826 2.31307L6.28609 11.3078C6.10237 11.4933 6 11.739 6 11.9944C6 12.2497 6.10237 12.4954 6.28609 12.681L15.1826 21.6767C15.2764 21.7742 15.3895 21.8529 15.5155 21.9083C15.6414 21.9637 15.7776 21.9947 15.9162 21.9994C16.0548 22.0041 16.1929 21.9824 16.3227 21.9357C16.4524 21.889 16.5711 21.8181 16.6719 21.7272C16.7728 21.6363 16.8537 21.5272 16.9099 21.4062C16.9662 21.2852 16.9967 21.1547 16.9998 21.0223C17.0028 20.89 16.9782 20.7584 16.9275 20.6351C16.8768 20.5119 16.801 20.3995 16.7044 20.3045L8.48614 11.9944L16.7044 3.68626Z" fill="#F2F2F2" fill-opacity="0.6"/>
</svg>