<svg width="36" height="36" viewBox="0 0 36 36" fill="none" xmlns="http://www.w3.org/2000/svg">
<path d="M16.7044 9.68626C16.7988 9.59084 16.8726 9.4786 16.9216 9.35595C16.9706 9.23329 16.9939 9.10262 16.99 8.97139C16.9861 8.84017 16.9552 8.71096 16.899 8.59115C16.8428 8.47133 16.7625 8.36325 16.6625 8.27309C16.5626 8.18292 16.4451 8.11243 16.3166 8.06565C16.1882 8.01886 16.0513 7.99669 15.9139 8.0004C15.7765 8.00411 15.6411 8.03363 15.5157 8.08728C15.3902 8.14093 15.277 8.21765 15.1826 8.31307L6.28609 17.3078C6.10237 17.4933 6 17.739 6 17.9944C6 18.2497 6.10237 18.4954 6.28609 18.681L15.1826 27.6767C15.2764 27.7742 15.3895 27.8529 15.5155 27.9083C15.6414 27.9637 15.7776 27.9947 15.9162 27.9994C16.0548 28.0041 16.1929 27.9824 16.3227 27.9357C16.4524 27.889 16.5711 27.8181 16.6719 27.7272C16.7728 27.6363 16.8537 27.5272 16.9099 27.4062C16.9662 27.2852 16.9967 27.1547 16.9998 27.0223C17.0028 26.89 16.9782 26.7584 16.9275 26.6351C16.8768 26.5119 16.801 26.3995 16.7044 26.3045L8.48614 17.9944L16.7044 9.68626Z" fill="white" fill-opacity="0.6"/>
</svg>
