<svg width="32" height="32" viewBox="0 0 32 32" fill="none" xmlns="http://www.w3.org/2000/svg">
<path d="M7.12612 27.7602C7.65561 27.9957 8.24101 28.0596 8.80595 27.9437C9.37089 27.8278 9.88914 27.5374 10.2931 27.1105L15.9997 21.2052L21.7062 27.1105C21.9723 27.3914 22.2893 27.6145 22.6388 27.7671C22.9884 27.9197 23.3635 27.9986 23.7426 27.9993C24.1322 27.9982 24.5177 27.9169 24.8771 27.7602C25.4109 27.5354 25.8672 27.1484 26.1863 26.6497C26.5055 26.1509 26.6727 25.5636 26.6662 24.9645V9.04463C26.6646 7.7072 26.1533 6.42501 25.2444 5.47931C24.3355 4.5336 23.1032 4.0016 21.8177 4L10.1816 4C8.89618 4.0016 7.66386 4.5336 6.75494 5.47931C5.84602 6.42501 5.33472 7.7072 5.33318 9.04463V24.9645C5.32692 25.5641 5.4947 26.1517 5.81459 26.6505C6.13447 27.1493 6.59157 27.5361 7.12612 27.7602Z" fill="#F4AC40"/>
</svg>
