<svg width="24" height="24" viewBox="0 0 24 24" fill="none" xmlns="http://www.w3.org/2000/svg">
<g id="ic-bookmark-outline">
<path id="Vector" d="M5.34483 20.8202C5.74195 20.9967 6.181 21.0447 6.6047 20.9578C7.02841 20.8708 7.4171 20.6531 7.72006 20.3328L12 15.9039L16.2799 20.3328C16.4795 20.5435 16.7172 20.7109 16.9794 20.8253C17.2415 20.9398 17.5229 20.999 17.8072 20.9995C18.0994 20.9986 18.3886 20.9377 18.6581 20.8202C19.0584 20.6516 19.4006 20.3613 19.64 19.9872C19.8794 19.6132 20.0048 19.1727 19.9999 18.7234V6.78347C19.9987 5.7804 19.6152 4.81876 18.9335 4.10948C18.2518 3.4002 17.3276 3.0012 16.3636 3L7.63643 3C6.67238 3.0012 5.74814 3.4002 5.06645 4.10948C4.38476 4.81876 4.00128 5.7804 4.00013 6.78347V18.7234C3.99543 19.1731 4.12127 19.6138 4.36119 19.9879C4.6011 20.362 4.94392 20.652 5.34483 20.8202Z" fill="#F4AC40"/>
</g>
</svg>
