<svg width="32" height="32" viewBox="0 0 32 32" fill="none" xmlns="http://www.w3.org/2000/svg">
<path d="M23.89 27.9965C23.5313 27.9955 23.1763 27.9212 22.8456 27.7779C22.5149 27.6346 22.215 27.4251 21.9632 27.1616L15.9997 21.0485L10.0361 27.1656C9.6531 27.5663 9.16192 27.8387 8.62658 27.9473C8.09125 28.0559 7.53659 27.9957 7.03493 27.7746C6.52828 27.5644 6.09486 27.2017 5.79126 26.7336C5.48767 26.2656 5.328 25.714 5.33313 25.1509V8.99928C5.33313 7.67339 5.84394 6.4018 6.7532 5.46425C7.66246 4.52671 8.89567 4 10.1816 4L21.8178 4C22.4545 4 23.085 4.12931 23.6732 4.38055C24.2614 4.63178 24.7959 5.00003 25.2461 5.46425C25.6964 5.92848 26.0535 6.4796 26.2971 7.08614C26.5408 7.69268 26.6662 8.34276 26.6662 8.99928V25.1509C26.6716 25.7135 26.5125 26.2648 26.2097 26.7328C25.9068 27.2008 25.4742 27.5638 24.9683 27.7746C24.6268 27.9218 24.2602 27.9973 23.89 27.9965ZM10.1816 5.99971C9.41002 5.99971 8.67009 6.31574 8.12454 6.87826C7.57899 7.44079 7.2725 8.20374 7.2725 8.99928V25.1509C7.27215 25.3175 7.31969 25.4805 7.40913 25.6193C7.49856 25.758 7.62587 25.8664 7.77498 25.9306C7.92409 25.9948 8.0883 26.0119 8.24688 25.98C8.40545 25.948 8.55128 25.8682 8.66594 25.7508L15.3209 18.9308C15.5026 18.7446 15.7483 18.6401 16.0045 18.6401C16.2607 18.6401 16.5065 18.7446 16.6881 18.9308L23.3353 25.7488C23.45 25.8662 23.5958 25.946 23.7544 25.978C23.913 26.0099 24.0772 25.9928 24.2263 25.9286C24.3754 25.8644 24.5027 25.7561 24.5921 25.6173C24.6816 25.4785 24.7291 25.3155 24.7288 25.1489V8.99928C24.7288 8.20374 24.4223 7.44079 23.8767 6.87826C23.3312 6.31574 22.5912 5.99971 21.8197 5.99971H10.1816Z" fill="#F2F2F2" fill-opacity="0.6"/>
</svg>
