
<svg xmlns="http://www.w3.org/2000/svg" width="24" height="24" viewBox="0 0 24 24" fill="none">
<path d="M17.9177 20.9974C17.6487 20.9966 17.3825 20.9409 17.1344 20.8334C16.8864 20.726 16.6615 20.5689 16.4727 20.3712L12 15.7864L7.52732 20.3742C7.24007 20.6747 6.87168 20.879 6.47018 20.9605C6.06868 21.042 5.65269 20.9968 5.27644 20.8309C4.89645 20.6733 4.57139 20.4012 4.34369 20.0502C4.11599 19.6992 3.99625 19.2855 4.00009 18.8632V6.74946C4.00009 5.75504 4.3832 4.80135 5.06514 4.09819C5.74709 3.39503 6.672 3 7.63641 3L16.3636 3C16.8411 3 17.314 3.09698 17.7551 3.28541C18.1963 3.47384 18.5972 3.75002 18.9348 4.09819C19.2725 4.44636 19.5404 4.8597 19.7231 5.3146C19.9058 5.76951 19.9999 6.25707 19.9999 6.74946V18.8632C20.004 19.2851 19.8847 19.6986 19.6575 20.0496C19.4303 20.4006 19.1059 20.6728 18.7265 20.8309C18.4703 20.9414 18.1954 20.998 17.9177 20.9974ZM7.63641 4.49978C7.05776 4.49978 6.50282 4.7368 6.09365 5.1587C5.68448 5.58059 5.45462 6.15281 5.45462 6.74946V18.8632C5.45436 18.9882 5.49001 19.1104 5.55709 19.2145C5.62417 19.3185 5.71965 19.3998 5.83148 19.4479C5.94331 19.4961 6.06647 19.509 6.1854 19.485C6.30434 19.461 6.4137 19.4012 6.4997 19.3131L11.4909 14.1981C11.6272 14.0585 11.8115 13.9801 12.0036 13.9801C12.1958 13.9801 12.3801 14.0585 12.5164 14.1981L17.5017 19.3116C17.5877 19.3997 17.6971 19.4595 17.816 19.4835C17.935 19.5075 18.0581 19.4946 18.17 19.4464C18.2818 19.3983 18.3773 19.317 18.4444 19.213C18.5114 19.1089 18.5471 18.9867 18.5468 18.8617V6.74946C18.5468 6.15281 18.317 5.58059 17.9078 5.1587C17.4986 4.7368 16.9437 4.49978 16.365 4.49978H7.63641Z" fill="#EDEDED"/>
</svg>

