<svg width="32" height="32" viewBox="0 0 32 32" fill="none" xmlns="http://www.w3.org/2000/svg">
<path d="M22.656 4.93007L10.464 17.1221C9.99836 17.5852 9.6292 18.1361 9.3779 18.7429C9.1266 19.3497 8.99817 20.0003 9.00002 20.6571V22.0001C9.00002 22.2653 9.10538 22.5196 9.29291 22.7072C9.48045 22.8947 9.7348 23.0001 10 23.0001H11.343C11.9998 23.0019 12.6504 22.8735 13.2572 22.6222C13.864 22.3709 14.4149 22.0017 14.878 21.5361L27.07 9.34407C27.6544 8.75824 27.9826 7.96455 27.9826 7.13707C27.9826 6.3096 27.6544 5.5159 27.07 4.93007C26.4757 4.36197 25.6852 4.04492 24.863 4.04492C24.0408 4.04492 23.2503 4.36197 22.656 4.93007ZM25.656 7.93007L13.464 20.1221C12.9001 20.6825 12.138 20.998 11.343 21.0001H11V20.6571C11.0021 19.8621 11.3176 19.0999 11.878 18.5361L24.07 6.34407C24.2836 6.14003 24.5676 6.02617 24.863 6.02617C25.1584 6.02617 25.4424 6.14003 25.656 6.34407C25.866 6.55459 25.9839 6.83976 25.9839 7.13707C25.9839 7.43438 25.866 7.71956 25.656 7.93007Z" fill="#EDEDED"/>
<path d="M27 12.979C26.7348 12.979 26.4804 13.0844 26.2929 13.2719C26.1054 13.4594 26 13.7138 26 13.979V19H22C21.2044 19 20.4413 19.3161 19.8787 19.8787C19.3161 20.4413 19 21.2044 19 22V26H9C8.20435 26 7.44129 25.6839 6.87868 25.1213C6.31607 24.5587 6 23.7957 6 23V9C6 8.20435 6.31607 7.44129 6.87868 6.87868C7.44129 6.31607 8.20435 6 9 6H18.042C18.3072 6 18.5616 5.89464 18.7491 5.70711C18.9366 5.51957 19.042 5.26522 19.042 5C19.042 4.73478 18.9366 4.48043 18.7491 4.29289C18.5616 4.10536 18.3072 4 18.042 4H9C7.67441 4.00159 6.40356 4.52888 5.46622 5.46622C4.52888 6.40356 4.00159 7.67441 4 9L4 23C4.00159 24.3256 4.52888 25.5964 5.46622 26.5338C6.40356 27.4711 7.67441 27.9984 9 28H20.343C20.9999 28.0019 21.6507 27.8735 22.2576 27.6222C22.8646 27.3709 23.4157 27.0017 23.879 26.536L26.535 23.878C27.0008 23.4149 27.37 22.864 27.6215 22.2572C27.873 21.6504 28.0016 20.9998 28 20.343V13.979C28 13.7138 27.8946 13.4594 27.7071 13.2719C27.5196 13.0844 27.2652 12.979 27 12.979ZM22.465 25.122C22.063 25.523 21.5547 25.8006 21 25.922V22C21 21.7348 21.1054 21.4804 21.2929 21.2929C21.4804 21.1054 21.7348 21 22 21H25.925C25.8013 21.5535 25.524 22.0609 25.125 22.464L22.465 25.122Z" fill="#EDEDED"/>
</svg>
