<svg xmlns="http://www.w3.org/2000/svg" width="24" height="24" viewBox="0 0 24 24" fill="none">
<path d="M20.9784 10.8145C20.7522 9.14742 20.0647 7.57673 18.9935 6.27948C17.9223 4.98223 16.5101 4.01002 14.9159 3.47244C13.3218 2.93487 11.6092 2.85331 9.97117 3.23698C8.33317 3.62064 6.83491 4.45426 5.64531 5.64385C4.45572 6.83344 3.6221 8.3317 3.23844 9.96971C2.85478 11.6077 2.93633 13.3203 3.47391 14.9145C4.01148 16.5086 4.9837 17.9209 6.28094 18.992C7.57819 20.0632 9.14888 20.7507 10.8159 20.977C10.9375 20.9928 11.06 21.0008 11.1827 21.001C11.9737 20.9944 12.73 20.6752 13.2864 20.113L20.1114 13.288C20.4354 12.9694 20.6821 12.5808 20.8324 12.152C20.9827 11.7232 21.0327 11.2656 20.9784 10.8145ZM4.55344 11.17C4.75515 9.39002 5.58519 7.74039 6.89434 6.51766C8.20348 5.29493 9.90585 4.57928 11.6954 4.49939C13.485 4.41949 15.2444 4.98058 16.6573 6.08178C18.0702 7.18298 19.0439 8.75208 19.4034 10.507C17.0542 10.5354 14.8091 11.4808 13.1472 13.1415C11.4854 14.8023 10.5384 17.0467 10.5084 19.396C8.66358 19.0239 7.02635 17.9711 5.92239 16.4469C4.81843 14.9227 4.32864 13.0388 4.55044 11.17H4.55344ZM12.2282 19.0517C12.1636 19.1137 12.0938 19.1702 12.0197 19.2205C12.0925 17.3329 12.8749 15.5424 14.2105 14.2066C15.5462 12.8708 17.3366 12.0882 19.2242 12.0152C19.1744 12.0898 19.1182 12.1598 19.0562 12.2245L12.2282 19.0517Z" fill="#EDEDED"/>
</svg>