<svg width="24" height="24" viewBox="0 0 24 24" fill="none" xmlns="http://www.w3.org/2000/svg">
<path d="M15 6.40967L15 17.5896C14.9992 17.7874 14.9397 17.9805 14.8292 18.1445C14.7186 18.3085 14.5619 18.436 14.3788 18.5109C14.1958 18.5858 13.9947 18.6048 13.8009 18.5654C13.6071 18.526 13.4293 18.4301 13.29 18.2896L7.71 12.7097C7.6163 12.6167 7.5419 12.5061 7.4911 12.3842C7.4404 12.2624 7.4142 12.1317 7.4142 11.9997C7.4142 11.8677 7.4404 11.737 7.4911 11.6151C7.5419 11.4932 7.6163 11.3826 7.71 11.2897L13.29 5.70967C13.4293 5.56917 13.6071 5.47327 13.8009 5.43387C13.9947 5.39447 14.1958 5.41347 14.3788 5.48837C14.5619 5.56327 14.7186 5.69077 14.8292 5.85477C14.9397 6.01877 14.9992 6.21187 15 6.40967Z" fill="#F2F2F2" fill-opacity="0.3"/>
</svg>
