<svg width="24" height="24" viewBox="0 0 24 24" fill="none" xmlns="http://www.w3.org/2000/svg">
<path d="M13.29 18.5899L7.70998 12.9999C7.52373 12.8126 7.41919 12.5591 7.41919 12.2949C7.41919 12.0307 7.52373 11.7773 7.70998 11.5899L13.29 5.99992C13.4299 5.85889 13.6086 5.76271 13.8033 5.72364C13.998 5.68457 14.2 5.70438 14.3835 5.78055C14.5669 5.85671 14.7235 5.98578 14.8333 6.1513C14.9431 6.31682 15.0011 6.51129 15 6.70992V17.8799C15.0011 18.0785 14.9431 18.273 14.8333 18.4385C14.7235 18.6041 14.5669 18.7331 14.3835 18.8093C14.2 18.8855 13.998 18.9053 13.8033 18.8662C13.6086 18.8271 13.4299 18.7309 13.29 18.5899Z" fill="#F2F2F2" fill-opacity="0.6"/>
</svg>
