<svg width="24" height="24" viewBox="0 0 24 24" fill="none" xmlns="http://www.w3.org/2000/svg">
<path d="M9.00002 17.8799V6.70992C8.99886 6.51129 9.05688 6.31682 9.16669 6.1513C9.27649 5.98578 9.43309 5.85671 9.61654 5.78055C9.79998 5.70438 10.002 5.68457 10.1967 5.72364C10.3914 5.76271 10.5701 5.85889 10.71 5.99992L16.29 11.5899C16.4763 11.7773 16.5808 12.0307 16.5808 12.2949C16.5808 12.5591 16.4763 12.8126 16.29 12.9999L10.71 18.5899C10.5701 18.7309 10.3914 18.8271 10.1967 18.8662C10.002 18.9053 9.79998 18.8855 9.61654 18.8093C9.43309 18.7331 9.27649 18.6041 9.16669 18.4385C9.05688 18.273 8.99886 18.0785 9.00002 17.8799Z" fill="#F2F2F2" fill-opacity="0.6"/>
</svg>
