<svg width="24" height="24" viewBox="0 0 24 24" fill="none" xmlns="http://www.w3.org/2000/svg">
<path d="M9 17.5901V6.41013C9.00083 6.21236 9.06028 6.01927 9.17085 5.85529C9.28141 5.6913 9.43811 5.56379 9.62115 5.48886C9.80418 5.41394 10.0053 5.39497 10.1991 5.43435C10.3929 5.47374 10.5707 5.56971 10.71 5.71013L16.29 11.2901C16.3837 11.3831 16.4581 11.4937 16.5089 11.6156C16.5596 11.7374 16.5858 11.8681 16.5858 12.0001C16.5858 12.1321 16.5596 12.2628 16.5089 12.3847C16.4581 12.5066 16.3837 12.6172 16.29 12.7101L10.71 18.2901C10.5707 18.4306 10.3929 18.5265 10.1991 18.5659C10.0053 18.6053 9.80418 18.5863 9.62115 18.5114C9.43811 18.4365 9.28141 18.309 9.17085 18.145C9.06028 17.981 9.00083 17.7879 9 17.5901Z" fill="#F2F2F2" fill-opacity="0.3"/>
</svg>
