<svg xmlns="http://www.w3.org/2000/svg" width="62" height="62" viewBox="0 0 62 62" fill="none">
  <g clip-path="url(#clip0_260_945)" filter="url(#filter0_d_260_945)">
    <path d="M49.2329 12.7682C48.0908 11.6278 46.5427 10.9873 44.9287 10.9873C43.3148 10.9873 41.7667 11.6278 40.6246 12.7682L13.3011 40.0917C12.5186 40.8698 11.8982 41.7953 11.4757 42.8147C11.0533 43.834 10.8372 44.9271 10.8399 46.0305V49.4796C10.8399 49.9251 11.0169 50.3525 11.3319 50.6675C11.647 50.9826 12.0743 51.1596 12.5199 51.1596H15.9689C17.0723 51.1627 18.1653 50.9469 19.1847 50.5247C20.2041 50.1026 21.1296 49.4824 21.9077 48.7001L49.2329 21.3749C50.3728 20.2328 51.013 18.6851 51.013 17.0715C51.013 15.4579 50.3728 13.9103 49.2329 12.7682ZM19.5322 46.3245C18.5847 47.2657 17.3044 47.7957 15.9689 47.7996H14.1999V46.0305C14.1982 45.3685 14.3278 44.7126 14.5813 44.101C14.8348 43.4893 15.2071 42.934 15.6766 42.4673L36.4128 21.731L40.2768 25.595L19.5322 46.3245ZM46.8557 18.9993L42.6456 23.2111L38.7816 19.3555L42.9934 15.1437C43.2471 14.8906 43.5482 14.6899 43.8795 14.5531C44.2108 14.4163 44.5657 14.346 44.9242 14.3464C45.2826 14.3468 45.6374 14.4178 45.9684 14.5553C46.2994 14.6929 46.6 14.8942 46.8532 15.1479C47.1063 15.4016 47.3071 15.7027 47.4439 16.034C47.5807 16.3653 47.6509 16.7203 47.6505 17.0787C47.6501 17.4371 47.5791 17.7919 47.4416 18.1229C47.3041 18.4539 47.1027 18.7546 46.849 19.0077L46.8557 18.9993Z" fill="white"/>
  </g>
  <defs>
    <filter id="filter0_d_260_945" x="0.839844" y="0.839844" width="60.3198" height="60.3203" filterUnits="userSpaceOnUse" color-interpolation-filters="sRGB">
      <feFlood flood-opacity="0" result="BackgroundImageFix"/>
      <feColorMatrix in="SourceAlpha" type="matrix" values="0 0 0 0 0 0 0 0 0 0 0 0 0 0 0 0 0 0 127 0" result="hardAlpha"/>
      <feOffset/>
      <feGaussianBlur stdDeviation="5"/>
      <feColorMatrix type="matrix" values="0 0 0 0 1 0 0 0 0 1 0 0 0 0 1 0 0 0 1 0"/>
      <feBlend mode="normal" in2="BackgroundImageFix" result="effect1_dropShadow_260_945"/>
      <feBlend mode="normal" in="SourceGraphic" in2="effect1_dropShadow_260_945" result="shape"/>
    </filter>
    <clipPath id="clip0_260_945">
      <rect width="40.32" height="40.32" fill="white" transform="translate(10.8398 10.8398)"/>
    </clipPath>
  </defs>
</svg>