<svg xmlns="http://www.w3.org/2000/svg" width="26" height="26" viewBox="0 0 26 26" fill="none">
  <g clip-path="url(#clip0_236_1416)">
    <path d="M13 26C20.1797 26 26 20.1797 26 13C26 5.8203 20.1797 0 13 0C5.8203 0 0 5.8203 0 13C0 20.1797 5.8203 26 13 26Z" fill="#FEE500"/>
    <path d="M13.0377 6.27441C8.9932 6.27441 5.73145 8.88379 5.73145 12.0516C5.73145 14.1078 7.08833 15.9083 9.12366 16.9364L8.43478 19.5093C8.4218 19.5478 8.41981 19.5893 8.42902 19.6288C8.43824 19.6685 8.4583 19.7049 8.48698 19.7337C8.52878 19.7705 8.58258 19.7909 8.63832 19.791C8.68454 19.7874 8.72839 19.7691 8.76357 19.7389L11.7279 17.7402C12.1654 17.8005 12.6065 17.8318 13.0482 17.834C17.0876 17.834 20.3545 15.2247 20.3545 12.0516C20.3545 8.87857 17.0771 6.27441 13.0377 6.27441Z" fill="#392020"/>
    <path d="M8.28838 11.1379H7.48989C7.39094 11.1407 7.29319 11.1154 7.20808 11.0648C7.1703 11.0411 7.13781 11.0099 7.11267 10.9731C7.08752 10.9362 7.07025 10.8946 7.06196 10.8508C7.05942 10.823 7.05942 10.7951 7.06196 10.7674C7.05948 10.7154 7.06957 10.6636 7.09137 10.6163C7.11318 10.5691 7.14604 10.5278 7.1872 10.496C7.27819 10.4301 7.38801 10.3953 7.50033 10.3968H9.9062C10.006 10.3933 10.1044 10.4206 10.188 10.4751C10.2267 10.4977 10.2599 10.5287 10.2851 10.5657C10.3104 10.6027 10.3271 10.6448 10.3342 10.6891C10.3367 10.7151 10.3367 10.7413 10.3342 10.7674C10.3366 10.8201 10.3265 10.8726 10.3048 10.9207C10.283 10.9688 10.2501 11.011 10.2089 11.0439C10.1201 11.1097 10.0114 11.1429 9.90098 11.1379H9.12861V13.883C9.13174 13.9414 9.12269 13.9999 9.10202 14.0548C9.08137 14.1095 9.04954 14.1594 9.00857 14.2013C8.96928 14.2413 8.92206 14.2726 8.86992 14.2933C8.81779 14.314 8.76192 14.3236 8.70588 14.3214C8.60787 14.3241 8.51193 14.2928 8.4345 14.2326C8.36078 14.1738 8.31075 14.0905 8.29359 13.9978C8.28843 13.9597 8.28843 13.9211 8.29359 13.883L8.28838 11.1379Z" fill="#FEE500"/>
    <path d="M10.5646 10.6C10.5875 10.5141 10.6414 10.4397 10.7159 10.3912C10.7953 10.3462 10.8857 10.3245 10.9768 10.3286H11.1752C11.2719 10.3251 11.3676 10.3486 11.4518 10.3965C11.5409 10.4564 11.6042 10.5477 11.6292 10.6522L12.673 13.6008C12.7 13.6777 12.7227 13.7561 12.7408 13.8357C12.7426 13.8687 12.7426 13.9017 12.7408 13.9348C12.7426 13.9857 12.7332 14.0363 12.7134 14.0832C12.6935 14.13 12.6637 14.172 12.626 14.2062C12.5894 14.2436 12.5455 14.2733 12.497 14.293C12.4486 14.3127 12.3965 14.3223 12.3442 14.321C12.2637 14.329 12.1828 14.3097 12.1147 14.2661C12.0465 14.2226 11.995 14.1573 11.9684 14.081L11.7492 13.4391H10.3767L10.1575 14.081C10.1316 14.1589 10.0794 14.2254 10.01 14.2691C9.9405 14.3129 9.858 14.3313 9.77653 14.321C9.68827 14.3233 9.60183 14.2958 9.53124 14.2427C9.46246 14.188 9.41605 14.1101 9.40076 14.0235C9.39799 13.994 9.39799 13.9643 9.40076 13.9348C9.3918 13.883 9.3918 13.8301 9.40076 13.7782C9.40076 13.7209 9.4373 13.6582 9.45817 13.6008L10.5646 10.6ZM11.0864 11.2837L10.5907 12.8493H11.577L11.0864 11.2837Z" fill="#FEE500"/>
    <path d="M12.8603 10.768C12.855 10.6508 12.8963 10.5364 12.9751 10.4496C13.0152 10.4092 13.0633 10.3776 13.1164 10.3569C13.1694 10.3363 13.2262 10.3269 13.283 10.3295C13.3808 10.3284 13.4762 10.3596 13.5545 10.4183C13.6269 10.4795 13.6751 10.5647 13.6901 10.6583C13.6953 10.6947 13.6953 10.7316 13.6901 10.768V13.5131H15.1253C15.2247 13.5118 15.3226 13.5388 15.4071 13.5913C15.4451 13.6147 15.4777 13.6459 15.5029 13.6827C15.5281 13.7196 15.5453 13.7614 15.5532 13.8053C15.5532 13.8053 15.5532 13.8574 15.5532 13.8836C15.5557 13.9356 15.5455 13.9873 15.5238 14.0345C15.502 14.0818 15.4691 14.1232 15.428 14.155C15.337 14.2208 15.2272 14.2556 15.1149 14.2541H13.3509C13.2386 14.2614 13.1269 14.2321 13.0325 14.1706C12.9482 14.1076 12.8919 14.0138 12.876 13.9097C12.8721 13.8524 12.8721 13.7948 12.876 13.7375L12.8603 10.768Z" fill="#FEE500"/>
    <path d="M15.6469 10.7676C15.6438 10.6508 15.6848 10.5372 15.7617 10.4492C15.84 10.3782 15.9404 10.3362 16.0459 10.3305C16.1513 10.3248 16.2556 10.3557 16.341 10.4179C16.4151 10.4786 16.4652 10.5637 16.4819 10.6579C16.4845 10.6944 16.4845 10.7311 16.4819 10.7676V12.0462L17.8023 10.5223C17.8532 10.4703 17.9073 10.4215 17.9641 10.3762C18.0178 10.3443 18.0792 10.3279 18.1415 10.3292C18.2328 10.3287 18.322 10.356 18.3972 10.4075C18.4327 10.4313 18.463 10.4622 18.4864 10.498C18.5097 10.5339 18.5255 10.5741 18.5329 10.6162C18.535 10.6266 18.535 10.6372 18.5329 10.6476C18.5305 10.6596 18.5305 10.672 18.5329 10.6841C18.5328 10.739 18.5184 10.7929 18.4912 10.8407C18.4635 10.8912 18.4302 10.9384 18.392 10.9815L17.5257 11.9314L18.5695 13.5491V13.6014C18.6237 13.6761 18.6659 13.7589 18.6948 13.8467V13.8727C18.7008 13.9333 18.6921 13.9942 18.6693 14.0507C18.6466 14.107 18.6106 14.157 18.5643 14.1963C18.4772 14.2622 18.3707 14.297 18.2616 14.2955C18.1891 14.2984 18.1171 14.2822 18.0529 14.2485C17.9833 14.2019 17.9261 14.1392 17.8858 14.0659L16.9151 12.5002L16.4506 12.9856V13.8571C16.4537 13.9738 16.4128 14.0875 16.3358 14.1755C16.2946 14.2158 16.2456 14.2472 16.1916 14.2679C16.1378 14.2884 16.0804 14.2979 16.0228 14.2955C15.9264 14.2975 15.8325 14.2662 15.7565 14.2068C15.6828 14.148 15.6328 14.0646 15.6156 13.9719C15.6105 13.9338 15.6105 13.8952 15.6156 13.8571L15.6469 10.7676Z" fill="#FEE500"/>
  </g>
  <defs>
    <clipPath id="clip0_236_1416">
      <rect width="26" height="26" rx="13" fill="white"/>
    </clipPath>
  </defs>
</svg>