<svg width="48" height="28" viewBox="0 0 48 28" fill="none" xmlns="http://www.w3.org/2000/svg">
<g id="Log">
<path d="M5.73185 14.0823C5.73185 14.745 6.26911 15.2823 6.93185 15.2823H10.8038C11.4666 15.2823 12.0038 15.8195 12.0038 16.4823V18.7783C12.0038 19.441 11.4666 19.9783 10.8038 19.9783H2.14385C1.48111 19.9783 0.943848 19.441 0.943848 18.7783V1.52227C0.943848 0.859524 1.48111 0.322266 2.14385 0.322266H4.53185C5.19459 0.322266 5.73185 0.859524 5.73185 1.52227V14.0823Z" fill="#F2F2F2" fill-opacity="0.3"/>
<path d="M21.0996 20.2023C19.5689 20.2023 18.1876 19.8756 16.9556 19.2223C15.7423 18.5689 14.7809 17.6356 14.0716 16.4223C13.3809 15.2089 13.0356 13.7903 13.0356 12.1663C13.0356 10.5609 13.3903 9.1516 14.0996 7.93827C14.8089 6.70627 15.7796 5.7636 17.0116 5.11027C18.2436 4.45693 19.6249 4.13026 21.1556 4.13026C22.6863 4.13026 24.0676 4.45693 25.2996 5.11027C26.5316 5.7636 27.5023 6.70627 28.2116 7.93827C28.9209 9.1516 29.2756 10.5609 29.2756 12.1663C29.2756 13.7716 28.9116 15.1903 28.1836 16.4223C27.4743 17.6356 26.4943 18.5689 25.2436 19.2223C24.0116 19.8756 22.6303 20.2023 21.0996 20.2023ZM21.0996 16.0583C22.0143 16.0583 22.7889 15.7223 23.4236 15.0503C24.0769 14.3783 24.4036 13.4169 24.4036 12.1663C24.4036 10.9156 24.0863 9.95427 23.4516 9.28227C22.8356 8.61027 22.0703 8.27427 21.1556 8.27427C20.2223 8.27427 19.4476 8.61027 18.8316 9.28227C18.2156 9.9356 17.9076 10.8969 17.9076 12.1663C17.9076 13.4169 18.2063 14.3783 18.8036 15.0503C19.4196 15.7223 20.1849 16.0583 21.0996 16.0583Z" fill="#F2F2F2" fill-opacity="0.3"/>
<path d="M37.4517 4.13026C38.5531 4.13026 39.5144 4.35426 40.3357 4.80226C40.6168 4.95219 40.876 5.1178 41.1132 5.29909C41.5042 5.59786 42.2677 5.33427 42.2677 4.84224C42.2677 4.57274 42.4862 4.35427 42.7557 4.35427H45.8557C46.5185 4.35427 47.0557 4.89152 47.0557 5.55427V19.9503C47.0557 21.3876 46.7664 22.6849 46.1877 23.8423C45.6277 25.0183 44.7597 25.9516 43.5837 26.6423C42.4264 27.3329 40.9797 27.6783 39.2437 27.6783C36.9291 27.6783 35.0531 27.1276 33.6157 26.0263C32.5333 25.2109 31.8002 24.1732 31.4165 22.9132C31.2083 22.2295 31.7763 21.6023 32.491 21.6023H34.9468C35.4974 21.6023 35.9481 22.0072 36.2911 22.438C36.464 22.6553 36.6829 22.8434 36.9477 23.0023C37.5077 23.3569 38.1984 23.5343 39.0197 23.5343C40.0091 23.5343 40.7931 23.2449 41.3717 22.6663C41.9691 22.1063 42.2677 21.2009 42.2677 19.9503C42.2677 19.303 41.2574 18.9361 40.7186 19.2947C40.5956 19.3766 40.4679 19.4551 40.3357 19.5303C39.5144 19.9783 38.5531 20.2023 37.4517 20.2023C36.1637 20.2023 34.9971 19.8756 33.9517 19.2223C32.9064 18.5503 32.0757 17.6076 31.4597 16.3943C30.8624 15.1623 30.5637 13.7436 30.5637 12.1383C30.5637 10.5329 30.8624 9.1236 31.4597 7.91027C32.0757 6.69693 32.9064 5.7636 33.9517 5.11027C34.9971 4.45693 36.1637 4.13026 37.4517 4.13026ZM42.2677 12.1663C42.2677 10.9716 41.9317 10.0289 41.2597 9.33827C40.6064 8.6476 39.8037 8.30227 38.8517 8.30227C37.8997 8.30227 37.0877 8.6476 36.4157 9.33827C35.7624 10.0103 35.4357 10.9436 35.4357 12.1383C35.4357 13.3329 35.7624 14.2849 36.4157 14.9943C37.0877 15.6849 37.8997 16.0303 38.8517 16.0303C39.8037 16.0303 40.6064 15.6849 41.2597 14.9943C41.9317 14.3036 42.2677 13.3609 42.2677 12.1663Z" fill="#F2F2F2" fill-opacity="0.3"/>
</g>
</svg>
