<svg width="36" height="36" viewBox="0 0 36 36" fill="none" xmlns="http://www.w3.org/2000/svg">
<g clip-path="url(#clip0_18_5049)">
<path d="M24 13C25.1 13 26 12.1 26 11C26 9.9 25.1 9 24 9C22.9 9 22 9.9 22 11C22 12.1 22.9 13 24 13ZM24 16C22.9 16 22 16.9 22 18C22 19.1 22.9 20 24 20C25.1 20 26 19.1 26 18C26 16.9 25.1 16 24 16ZM24 23C22.9 23 22 23.9 22 25C22 26.1 22.9 27 24 27C25.1 27 26 26.1 26 25C26 23.9 25.1 23 24 23Z" fill="white" fill-opacity="0.6"/>
</g>
<defs>
<clipPath id="clip0_18_5049">
<rect width="24" height="24" fill="white" transform="translate(12 6)"/>
</clipPath>
</defs>
</svg>
