<svg xmlns="http://www.w3.org/2000/svg" width="28" height="28" viewBox="0 0 28 28" fill="none">
<g clip-path="url(#clip0_206_1055)">
<path d="M26.6619 1.33928C25.8687 0.547342 24.7937 0.102539 23.6729 0.102539C22.552 0.102539 21.477 0.547342 20.6839 1.33928L1.70918 20.3139C1.16581 20.8543 0.734973 21.497 0.441599 22.2049C0.148224 22.9128 -0.00186431 23.6718 1.74781e-05 24.4381V26.8333C1.74781e-05 27.1427 0.122934 27.4394 0.341726 27.6582C0.560519 27.877 0.857265 27.9999 1.16668 27.9999H3.56185C4.32807 28.0021 5.08711 27.8523 5.79503 27.5591C6.50295 27.2659 7.14568 26.8352 7.68602 26.2919L26.6619 7.31611C27.4534 6.52301 27.898 5.44824 27.898 4.3277C27.898 3.20715 27.4534 2.13239 26.6619 1.33928ZM6.03635 24.6423C5.37835 25.2959 4.48931 25.6639 3.56185 25.6666H2.33335V24.4381C2.33217 23.9783 2.4222 23.5229 2.59823 23.0981C2.77426 22.6734 3.03278 22.2878 3.35885 21.9636L17.759 7.56345L20.4424 10.2468L6.03635 24.6423ZM25.011 5.66645L22.0873 8.59128L19.404 5.91378L22.3288 2.98895C22.505 2.81314 22.7141 2.67376 22.9442 2.57876C23.1742 2.48376 23.4208 2.435 23.6697 2.43527C23.9186 2.43554 24.165 2.48484 24.3948 2.58034C24.6247 2.67584 24.8335 2.81567 25.0093 2.99186C25.1851 3.16805 25.3245 3.37715 25.4195 3.6072C25.5145 3.83726 25.5632 4.08378 25.5629 4.33268C25.5627 4.58157 25.5134 4.82798 25.4179 5.05783C25.3224 5.28768 25.1825 5.49647 25.0063 5.67228L25.011 5.66645Z" fill="#F2F2F2"/>
</g>
<defs>
<clipPath id="clip0_206_1055">
<rect width="28" height="28" fill="white"/>
</clipPath>
</defs>
</svg>