<svg xmlns="http://www.w3.org/2000/svg" width="36" height="36" viewBox="0 0 36 36" fill="none">
  <g clip-path="url(#clip0_236_1884)">
    <mask id="mask0_236_1884" style="mask-type:luminance" maskUnits="userSpaceOnUse" x="0" y="0" width="36" height="36">
      <path d="M36 0H0V36H36V0Z" fill="white"/>
    </mask>
    <g mask="url(#mask0_236_1884)">
      <path d="M18 36C27.9411 36 36 27.9411 36 18C36 8.05887 27.9411 0 18 0C8.05887 0 0 8.05887 0 18C0 27.9411 8.05887 36 18 36Z" fill="#B5B5B5"/>
      <mask id="mask1_236_1884" style="mask-type:luminance" maskUnits="userSpaceOnUse" x="0" y="0" width="36" height="36">
        <path d="M36 18C36 8.05887 27.9411 0 18 0C8.05887 0 0 8.05887 0 18C0 27.9411 8.05887 36 18 36C27.9411 36 36 27.9411 36 18Z" fill="white"/>
      </mask>
      <g mask="url(#mask1_236_1884)">
        <path d="M18 36C27.9411 36 36 27.9411 36 18C36 8.05887 27.9411 0 18 0C8.05887 0 0 8.05887 0 18C0 27.9411 8.05887 36 18 36Z" fill="#F2F2F2" fill-opacity="0.3"/>
        <path d="M18.0001 9.27246C14.1935 9.27246 11.0967 12.3693 11.0967 16.1758C11.0967 19.9824 14.1935 23.0793 18.0001 23.0793C21.8066 23.0793 24.9034 19.9824 24.9034 16.1758C24.9034 12.3693 21.8066 9.27246 18.0001 9.27246Z" fill="black" fill-opacity="0.3"/>
        <path d="M26.5514 28.0854C24.6698 26.1543 22.1754 25.0908 19.5277 25.0908H16.4732C13.8255 25.0908 11.3311 26.1543 9.44946 28.0854C7.57713 30.0071 6.5459 32.5436 6.5459 35.2281C6.5459 35.6543 6.88784 35.9999 7.30953 35.9999H28.6914C29.113 35.9999 29.455 35.6543 29.455 35.2281C29.455 32.5436 28.4238 30.0071 26.5514 28.0854Z" fill="black" fill-opacity="0.3"/>
      </g>
    </g>
  </g>
  <defs>
    <clipPath id="clip0_236_1884">
      <rect width="36" height="36" fill="white"/>
    </clipPath>
  </defs>
</svg>