<svg width="22" height="22" viewBox="0 0 22 22" fill="none" xmlns="http://www.w3.org/2000/svg">
<path d="M14.1169 9.05707L9.90935 4.84957C9.7376 4.67884 9.50527 4.58301 9.2631 4.58301C9.02093 4.58301 8.7886 4.67884 8.61685 4.84957C8.53093 4.93478 8.46274 5.03617 8.4162 5.14787C8.36966 5.25958 8.3457 5.37939 8.3457 5.5004C8.3457 5.62141 8.36966 5.74123 8.4162 5.85293C8.46274 5.96463 8.53093 6.06602 8.61685 6.15123L12.8335 10.3496C12.9194 10.4348 12.9876 10.5362 13.0342 10.6479C13.0807 10.7596 13.1047 10.8794 13.1047 11.0004C13.1047 11.1214 13.0807 11.2412 13.0342 11.3529C12.9876 11.4646 12.9194 11.566 12.8335 11.6512L8.61685 15.8496C8.44424 16.021 8.34678 16.2539 8.34593 16.4972C8.34507 16.7404 8.44087 16.974 8.61227 17.1467C8.78367 17.3193 9.01661 17.4167 9.25986 17.4176C9.50311 17.4184 9.73674 17.3226 9.90935 17.1512L14.1169 12.9437C14.6318 12.4281 14.9211 11.7292 14.9211 11.0004C14.9211 10.2716 14.6318 9.5727 14.1169 9.05707Z" fill="#F2F2F2"/>
</svg>
