<svg width="36" height="36" viewBox="0 0 36 36" fill="none" xmlns="http://www.w3.org/2000/svg">
<g clip-path="url(#clip0_507_34)">
<path d="M26.5372 18.7001L25.4072 18.0001L26.5382 17.3001C27.3235 16.8332 27.9316 16.1189 28.2672 15.2691C28.4773 14.7073 28.5556 14.1047 28.4961 13.5078C28.4366 12.9109 28.2408 12.3356 27.924 11.8263C27.6071 11.317 27.1775 10.8872 26.6684 10.5701C26.1592 10.253 25.584 10.0569 24.9872 9.99711C24.0765 9.92262 23.1669 10.1527 22.4012 10.6511L22.0002 10.9001V10.1721C22.0171 9.15686 21.6581 8.1712 20.9923 7.40459C20.3265 6.63798 19.4008 6.14453 18.3932 6.01911C17.8374 5.96424 17.2763 6.02635 16.746 6.20145C16.2157 6.37655 15.728 6.66075 15.3142 7.03576C14.9004 7.41076 14.5696 7.86827 14.3433 8.37882C14.117 8.88937 14.0001 9.44165 14.0002 10.0001V10.9001L13.6002 10.6501C12.8346 10.1503 11.9245 9.91913 11.0132 9.99311C10.4162 10.0524 9.84086 10.248 9.33143 10.5648C8.822 10.8816 8.39212 11.3111 8.07492 11.8203C7.75772 12.3294 7.56168 12.9047 7.50192 13.5016C7.44215 14.0985 7.52025 14.7012 7.73019 15.2631C8.06583 16.1131 8.67437 16.8276 9.46019 17.2941L10.5932 18.0001L9.46219 18.7001C8.67689 19.167 8.06877 19.8814 7.73319 20.7311C7.52284 21.2934 7.44451 21.8965 7.50426 22.4939C7.56401 23.0913 7.76024 23.6669 8.0778 24.1764C8.39536 24.6859 8.82576 25.1156 9.33576 25.4323C9.84576 25.749 10.4217 25.9443 11.0192 26.0031C11.9278 26.0774 12.8355 25.8484 13.6002 25.3521L14.0002 25.1001V26.0001C14.0002 27.061 14.4216 28.0784 15.1718 28.8285C15.9219 29.5787 16.9393 30.0001 18.0002 30.0001C19.0611 30.0001 20.0785 29.5787 20.8286 28.8285C21.5788 28.0784 22.0002 27.061 22.0002 26.0001V25.1001L22.4002 25.3511C23.1645 25.8478 24.0717 26.0774 24.9802 26.0041C25.5775 25.945 26.1532 25.7495 26.663 25.4327C27.1727 25.1158 27.6029 24.6861 27.9202 24.1767C28.2376 23.6672 28.4336 23.0917 28.4933 22.4944C28.5529 21.8972 28.4745 21.2943 28.2642 20.7321C27.9292 19.8824 27.3218 19.1677 26.5372 18.7001V18.7001ZM26.2262 23.1181C25.9575 23.5493 25.5285 23.8561 25.0336 23.9711C24.5387 24.086 24.0185 23.9997 23.5872 23.7311L21.5282 22.4491C21.3766 22.3549 21.2026 22.3029 21.0242 22.2986C20.8458 22.2944 20.6695 22.3379 20.5136 22.4247C20.3577 22.5115 20.2279 22.6385 20.1376 22.7924C20.0473 22.9464 19.9999 23.1217 20.0002 23.3001V26.0001C20.0002 26.5305 19.7895 27.0393 19.4144 27.4143C19.0393 27.7894 18.5306 28.0001 18.0002 28.0001C17.4698 28.0001 16.9611 27.7894 16.586 27.4143C16.2109 27.0393 16.0002 26.5305 16.0002 26.0001V23.3001C16.0002 23.1218 15.9524 22.9468 15.862 22.7931C15.7716 22.6395 15.6417 22.5128 15.4859 22.4262C15.33 22.3396 15.1539 22.2963 14.9757 22.3007C14.7974 22.305 14.6236 22.357 14.4722 22.4511L12.4132 23.7351C12.1997 23.8681 11.962 23.9577 11.7139 23.9988C11.4657 24.0399 11.2119 24.0318 10.9669 23.9748C10.7219 23.9178 10.4905 23.8132 10.2859 23.6668C10.0814 23.5204 9.90766 23.3351 9.77469 23.1216C9.64173 22.9081 9.55213 22.6705 9.511 22.4223C9.46987 22.1741 9.47802 21.9203 9.53499 21.6753C9.59196 21.4303 9.69663 21.1989 9.84302 20.9943C9.98941 20.7898 10.1747 20.6161 10.3882 20.4831L13.0132 18.8491C13.1579 18.7594 13.2773 18.6343 13.3601 18.4855C13.4429 18.3368 13.4864 18.1694 13.4864 17.9991C13.4864 17.8289 13.4429 17.6614 13.3601 17.5127C13.2773 17.3639 13.1579 17.2388 13.0132 17.1491L10.3882 15.5161C9.95695 15.2476 9.65005 14.8187 9.53499 14.3239C9.41994 13.8291 9.50616 13.3089 9.77469 12.8776C10.0432 12.4464 10.4721 12.1395 10.9669 12.0244C11.4617 11.9094 11.982 11.9956 12.4132 12.2641L14.4722 13.5461C14.6234 13.6401 14.7969 13.692 14.9749 13.6965C15.1529 13.7011 15.3288 13.658 15.4846 13.5717C15.6403 13.4855 15.7702 13.3592 15.8609 13.206C15.9515 13.0528 15.9996 12.8781 16.0002 12.7001V10.1071C15.9894 9.62026 16.1502 9.14512 16.4544 8.76486C16.7586 8.3846 17.1868 8.12345 17.6642 8.02711C17.9513 7.97819 18.2455 7.99254 18.5265 8.06917C18.8074 8.1458 19.0682 8.28285 19.2907 8.47075C19.5132 8.65864 19.6919 8.89286 19.8145 9.15702C19.937 9.42117 20.0004 9.70891 20.0002 10.0001V12.7001C20.0004 12.8783 20.0483 13.0532 20.1388 13.2067C20.2292 13.3602 20.3591 13.4868 20.5149 13.5732C20.6708 13.6597 20.8468 13.703 21.025 13.6986C21.2031 13.6941 21.3769 13.6422 21.5282 13.5481L23.5872 12.2671C23.8007 12.1341 24.0384 12.0445 24.2865 12.0034C24.5347 11.9623 24.7885 11.9704 25.0335 12.0274C25.2785 12.0844 25.5099 12.189 25.7145 12.3354C25.919 12.4818 26.0927 12.6671 26.2257 12.8806C26.3587 13.0941 26.4483 13.3318 26.4894 13.5799C26.5305 13.8281 26.5224 14.0819 26.4654 14.3269C26.4084 14.5719 26.3038 14.8033 26.1574 15.0079C26.011 15.2124 25.8257 15.3861 25.6122 15.5191L22.9872 17.1531C22.8425 17.2428 22.7231 17.3679 22.6403 17.5167C22.5574 17.6654 22.514 17.8329 22.514 18.0031C22.514 18.1734 22.5574 18.3408 22.6403 18.4895C22.7231 18.6383 22.8425 18.7634 22.9872 18.8531L25.6122 20.4871C25.8258 20.6199 26.0112 20.7935 26.1577 20.998C26.3042 21.2025 26.409 21.4338 26.466 21.6788C26.5231 21.9238 26.5312 22.1777 26.4901 22.4258C26.4489 22.674 26.3592 22.9116 26.2262 23.1251V23.1181Z" fill="#F2F2F2"/>
</g>
<defs>
<clipPath id="clip0_507_34">
<rect width="24" height="24" fill="white" transform="translate(6 6)"/>
</clipPath>
</defs>
</svg>
