<svg width="32" height="32" viewBox="0 0 32 32" fill="none" xmlns="http://www.w3.org/2000/svg">
<path d="M27.9716 14.4191C27.6699 12.1964 26.7532 10.1021 25.325 8.37248C23.8968 6.64281 22.0138 5.34652 19.8882 4.62976C17.7627 3.91299 15.4792 3.80426 13.2952 4.31581C11.1112 4.82735 9.11354 5.93885 7.52741 7.52497C5.94129 9.11109 4.8298 11.1088 4.31825 13.2928C3.8067 15.4768 3.91544 17.7603 4.6322 19.8858C5.34897 22.0113 6.64525 23.8943 8.37492 25.3226C10.1046 26.7508 12.1988 27.6674 14.4216 27.9691C14.5837 27.9903 14.7471 28.001 14.9106 28.0011C15.9653 27.9924 16.9736 27.5668 17.7156 26.8171L26.8156 17.7171C27.2476 17.2924 27.5764 16.7742 27.7768 16.2025C27.9773 15.6307 28.0439 15.0206 27.9716 14.4191ZM6.07157 14.8931C6.34053 12.5199 7.44725 10.3204 9.19277 8.69005C10.9383 7.05974 13.2081 6.10555 15.5942 5.99902C17.9803 5.89249 20.3261 6.6406 22.21 8.10888C24.0939 9.57715 25.3922 11.6693 25.8716 14.0091C22.7392 14.047 19.7457 15.3076 17.5299 17.5219C15.3141 19.7362 14.0515 22.7288 14.0116 25.8611C11.5518 25.3651 9.36879 23.9613 7.89685 21.9291C6.42491 19.8968 5.77185 17.385 6.06757 14.8931H6.07157ZM16.3046 25.4021C16.2184 25.4848 16.1254 25.5601 16.0266 25.6271C16.1237 23.1104 17.1669 20.723 18.9477 18.942C20.7285 17.1609 23.1158 16.1175 25.6326 16.0201C25.5662 16.1195 25.4913 16.2129 25.4086 16.2991L16.3046 25.4021Z" fill="#EDEDED"/>
</svg>
