<svg width="32" height="32" viewBox="0 0 32 32" fill="none" xmlns="http://www.w3.org/2000/svg">
<path d="M27.8535 16.2127C27.6507 16.7936 27.3194 17.3213 26.8845 17.7566L17.7556 26.8854C17.32 27.316 16.792 27.6419 16.2118 27.8384C16.0512 26.8936 16.0228 25.931 16.1275 24.9784C16.3892 22.7204 17.4063 20.6172 19.0137 19.01C20.6211 17.4028 22.7245 16.3859 24.9825 16.1244C25.9389 16.0194 26.9054 16.0492 27.8535 16.2127ZM14.1282 24.7667C14.4413 22.0546 15.6622 19.5281 17.5927 17.5976C19.5232 15.6672 22.0497 14.4462 24.7618 14.1331C25.84 14.0175 26.9287 14.0438 28 14.2114C27.6565 12.0095 26.7103 9.94575 25.2661 8.2486C23.8219 6.55144 21.9361 5.28714 19.8176 4.59574C17.6992 3.90434 15.4306 3.81282 13.2633 4.33131C11.096 4.8498 9.11455 5.95807 7.53833 7.53336C5.96212 9.10866 4.85269 11.0895 4.33294 13.2565C3.81319 15.4235 3.9034 17.6921 4.59356 19.811C5.28373 21.9299 6.54693 23.8164 8.24325 25.2615C9.93957 26.7067 12.0028 27.6541 14.2044 27.9989C14.0374 26.9295 14.0118 25.8428 14.1282 24.7667Z" fill="#F4AC40"/>
</svg>
